ffmpeg started on 2025-05-12 at 20:26:15
Report written to "D:\Convert\FFMetrics\reports\psnr_report-6.txt"
Log level: 32
Command line:
ffmpeg -hide_banner -nostdin -i "G:\\\xc0\xed\xe8\xec\xe5\\\xce\xed\xe3\xee\xe8\xed\xe3\xe8\\!_35_\xcb\xe5\xf2\xee_2024\\DreamCast-1\\\xcf\xee\xeb\xf3\xed\xee\xf7\xed\xfb\xe9 \xf3\xe4\xe0\xf0\\[DC] Mayonaka Punch - 10_Telegram_HEVC.mkv" -i "G:\\\xc0\xed\xe8\xec\xe5\\\xce\xed\xe3\xee\xe8\xed\xe3\xe8\\!_35_\xcb\xe5\xf2\xee_2024\\DreamCast-1\\\xcf\xee\xeb\xf3\xed\xee\xf7\xed\xfb\xe9 \xf3\xe4\xe0\xf0\\[DC] Mayonaka Punch - 10_Telegram.mp4" -lavfi "[0:v]settb=AVTB,setpts=PTS-STARTPTS,format=pix_fmts=yuv420p10,fps=24000/1001,scale=1920:1080:flags=bicubic[main];[1:v]settb=AVTB,setpts=PTS-STARTPTS,format=pix_fmts=yuv420p,fps=24000/1001,scale=1920:1080:flags=bicubic[ref];[main][ref]psnr=eof_action=endall:stats_file='D\\:/Convert/FFMetrics/logs/psnr_logfile-6.txt'" -f null -
Input #0, matroska,webm, from 'G:\Аниме\Онгоинги\!_35_Лето_2024\DreamCast-1\Полуночный удар\[DC] Mayonaka Punch - 10_Telegram_HEVC.mkv':
  Metadata:
    COMPATIBLE_BRANDS: isomiso2avc1mp41
    MAJOR_BRAND     : isom
    MINOR_VERSION   : 512
    ENCODER         : Lavf61.7.100
  Duration: 00:23:47.80, start: -0.021000, bitrate: 1152 kb/s
  Stream #0:0: Video: hevc (Main 10), yuv420p10le(tv, bt709, progressive), 1920x1080 [SAR 1:1 DAR 16:9], 23.98 fps, 23.98 tbr, 1k tbn (default)
      Metadata:
        HANDLER_NAME    : VideoHandler
        VENDOR_ID       : [0][0][0][0]
        ENCODER         : Lavc61.19.100 libx265
        BPS             : 957240
        DURATION        : 00:23:46.549708333
        NUMBER_OF_FRAMES: 34203
        NUMBER_OF_BYTES : 170693801
        _STATISTICS_WRITING_APP: mkvpropedit v66.0.0 ('Josie') 64-bit
        _STATISTICS_WRITING_DATE_UTC: 2025-05-10 11:48:03
        _STATISTICS_TAGS: BPS DURATION NUMBER_OF_FRAMES NUMBER_OF_BYTES
  Stream #0:1: Audio: aac (LC), 48000 Hz, stereo, fltp (default)
      Metadata:
        HANDLER_NAME    : SoundHandler
        VENDOR_ID       : [0][0][0][0]
        ENCODER         : Lavc61.19.100 aac
        BPS             : 192401
        DURATION        : 00:23:47.797000000
        NUMBER_OF_FRAMES: 66929
        NUMBER_OF_BYTES : 34338701
        _STATISTICS_WRITING_APP: mkvpropedit v66.0.0 ('Josie') 64-bit
        _STATISTICS_WRITING_DATE_UTC: 2025-05-10 11:48:03
        _STATISTICS_TAGS: BPS DURATION NUMBER_OF_FRAMES NUMBER_OF_BYTES
Input #1, mov,mp4,m4a,3gp,3g2,mj2, from 'G:\Аниме\Онгоинги\!_35_Лето_2024\DreamCast-1\Полуночный удар\[DC] Mayonaka Punch - 10_Telegram.mp4':
  Metadata:
    major_brand     : isom
    minor_version   : 512
    compatible_brands: isomiso2avc1mp41
    encoder         : Lavf61.1.100
  Duration: 00:23:47.76, start: 0.000000, bitrate: 3705 kb/s
  Stream #1:0[0x1](und): Video: h264 (High) (avc1 / 0x31637661), yuv420p(tv, bt709, progressive), 1920x1080 [SAR 1:1 DAR 16:9], 3560 kb/s, 23.98 fps, 23.98 tbr, 24k tbn (default)
      Metadata:
        handler_name    : VideoHandler
        vendor_id       : [0][0][0][0]
        encoder         : Lavc61.3.100 h264_qsv
  Stream #1:1[0x2](und): Audio: aac (HE-AACv2) (mp4a / 0x6134706D), 48000 Hz, stereo, fltp, 144 kb/s (default)
      Metadata:
        handler_name    : SoundHandler
        vendor_id       : [0][0][0][0]
Stream mapping:
  Stream #0:0 (hevc) -> settb:default
  Stream #1:0 (h264) -> settb:default
  psnr:default -> Stream #0:0 (wrapped_avframe)
  Stream #0:1 -> #0:1 (aac (native) -> pcm_s16le (native))
Output #0, null, to 'pipe:':
  Metadata:
    COMPATIBLE_BRANDS: isomiso2avc1mp41
    MAJOR_BRAND     : isom
    MINOR_VERSION   : 512
    encoder         : Lavf61.7.100
  Stream #0:0: Video: wrapped_avframe, yuv420p10le(tv, bt709, progressive), 1920x1080 [SAR 1:1 DAR 16:9], q=2-31, 200 kb/s, 23.98 fps, 23.98 tbn
      Metadata:
        encoder         : Lavc61.19.100 wrapped_avframe
  Stream #0:1: Audio: pcm_s16le, 48000 Hz, stereo, s16, 1536 kb/s (default)
      Metadata:
        HANDLER_NAME    : SoundHandler
        VENDOR_ID       : [0][0][0][0]
        _STATISTICS_TAGS: BPS DURATION NUMBER_OF_FRAMES NUMBER_OF_BYTES
        BPS             : 192401
        DURATION        : 00:23:47.797000000
        NUMBER_OF_FRAMES: 66929
        NUMBER_OF_BYTES : 34338701
        _STATISTICS_WRITING_APP: mkvpropedit v66.0.0 ('Josie') 64-bit
        _STATISTICS_WRITING_DATE_UTC: 2025-05-10 11:48:03
        encoder         : Lavc61.19.100 pcm_s16le
frame=  151 fps=0.0 q=-0.0 size=N/A time=00:00:06.29 bitrate=N/A speed=12.5x    frame=  389 fps=381 q=-0.0 size=N/A time=00:00:16.22 bitrate=N/A speed=15.9x    frame=  650 fps=421 q=-0.0 size=N/A time=00:00:27.11 bitrate=N/A speed=17.6x    frame=  878 fps=428 q=-0.0 size=N/A time=00:00:36.61 bitrate=N/A speed=17.8x    frame= 1119 fps=435 q=-0.0 size=N/A time=00:00:46.67 bitrate=N/A speed=18.2x    frame= 1365 fps=441 q=-0.0 size=N/A time=00:00:56.93 bitrate=N/A speed=18.4x    frame= 1618 fps=448 q=-0.0 size=N/A time=00:01:07.48 bitrate=N/A speed=18.7x    frame= 1798 fps=436 q=-0.0 size=N/A time=00:01:14.99 bitrate=N/A speed=18.2x    frame= 1976 fps=425 q=-0.0 size=N/A time=00:01:22.41 bitrate=N/A speed=17.7x    frame= 2166 fps=419 q=-0.0 size=N/A time=00:01:30.34 bitrate=N/A speed=17.5x    frame= 2332 fps=410 q=-0.0 size=N/A time=00:01:37.26 bitrate=N/A speed=17.1x    frame= 2476 fps=400 q=-0.0 size=N/A time=00:01:43.26 bitrate=N/A speed=16.7x    frame= 2671 fps=398 q=-0.0 size=N/A time=00:01:51.40 bitrate=N/A speed=16.6x    frame= 2837 fps=393 q=-0.0 size=N/A time=00:01:58.32 bitrate=N/A speed=16.4x    frame= 3007 fps=388 q=-0.0 size=N/A time=00:02:05.41 bitrate=N/A speed=16.2x    frame= 3184 fps=385 q=-0.0 size=N/A time=00:02:12.79 bitrate=N/A speed=16.1x    frame= 3358 fps=383 q=-0.0 size=N/A time=00:02:20.05 bitrate=N/A speed=  16x    frame= 3549 fps=382 q=-0.0 size=N/A time=00:02:28.02 bitrate=N/A speed=15.9x    frame= 3739 fps=381 q=-0.0 size=N/A time=00:02:35.94 bitrate=N/A speed=15.9x    frame= 3945 fps=382 q=-0.0 size=N/A time=00:02:44.53 bitrate=N/A speed=15.9x    frame= 4094 fps=378 q=-0.0 size=N/A time=00:02:50.75 bitrate=N/A speed=15.8x    frame= 4283 fps=377 q=-0.0 size=N/A time=00:02:58.63 bitrate=N/A speed=15.7x    frame= 4515 fps=380 q=-0.0 size=N/A time=00:03:08.31 bitrate=N/A speed=15.9x    frame= 4722 fps=381 q=-0.0 size=N/A time=00:03:16.94 bitrate=N/A speed=15.9x    frame= 4972 fps=385 q=-0.0 size=N/A time=00:03:27.37 bitrate=N/A speed=16.1x    frame= 5196 fps=387 q=-0.0 size=N/A time=00:03:36.71 bitrate=N/A speed=16.1x    frame= 5423 fps=389 q=-0.0 size=N/A time=00:03:46.18 bitrate=N/A speed=16.2x    frame= 5658 fps=392 q=-0.0 size=N/A time=00:03:55.98 bitrate=N/A speed=16.3x    frame= 5914 fps=395 q=-0.0 size=N/A time=00:04:06.66 bitrate=N/A speed=16.5x    frame= 6166 fps=398 q=-0.0 size=N/A time=00:04:17.17 bitrate=N/A speed=16.6x    frame= 6413 fps=401 q=-0.0 size=N/A time=00:04:27.47 bitrate=N/A speed=16.7x    frame= 6672 fps=404 q=-0.0 size=N/A time=00:04:38.27 bitrate=N/A speed=16.9x    frame= 6925 fps=407 q=-0.0 size=N/A time=00:04:48.83 bitrate=N/A speed=  17x    frame= 7172 fps=409 q=-0.0 size=N/A time=00:04:59.13 bitrate=N/A speed=  17x    frame= 7415 fps=410 q=-0.0 size=N/A time=00:05:09.26 bitrate=N/A speed=17.1x    frame= 7597 fps=409 q=-0.0 size=N/A time=00:05:16.85 bitrate=N/A speed=17.1x    frame= 7808 fps=409 q=-0.0 size=N/A time=00:05:25.65 bitrate=N/A speed=  17x    frame= 8035 fps=410 q=-0.0 size=N/A time=00:05:35.12 bitrate=N/A speed=17.1x    frame= 8271 fps=411 q=-0.0 size=N/A time=00:05:44.96 bitrate=N/A speed=17.1x    frame= 8513 fps=412 q=-0.0 size=N/A time=00:05:55.06 bitrate=N/A speed=17.2x    frame= 8750 fps=414 q=-0.0 size=N/A time=00:06:04.94 bitrate=N/A speed=17.2x    frame= 8982 fps=414 q=-0.0 size=N/A time=00:06:14.62 bitrate=N/A speed=17.3x    frame= 9223 fps=415 q=-0.0 size=N/A time=00:06:24.67 bitrate=N/A speed=17.3x    frame= 9467 fps=417 q=-0.0 size=N/A time=00:06:34.85 bitrate=N/A speed=17.4x    frame= 9714 fps=418 q=-0.0 size=N/A time=00:06:45.15 bitrate=N/A speed=17.4x    frame= 9928 fps=418 q=-0.0 size=N/A time=00:06:54.08 bitrate=N/A speed=17.4x    frame=10117 fps=417 q=-0.0 size=N/A time=00:07:01.96 bitrate=N/A speed=17.4x    frame=10324 fps=417 q=-0.0 size=N/A time=00:07:10.59 bitrate=N/A speed=17.4x    frame=10567 fps=418 q=-0.0 size=N/A time=00:07:20.73 bitrate=N/A speed=17.4x    frame=10798 fps=418 q=-0.0 size=N/A time=00:07:30.36 bitrate=N/A speed=17.5x    frame=11014 fps=418 q=-0.0 size=N/A time=00:07:39.37 bitrate=N/A speed=17.4x    frame=11230 fps=418 q=-0.0 size=N/A time=00:07:48.38 bitrate=N/A speed=17.5x    frame=11467 fps=419 q=-0.0 size=N/A time=00:07:58.26 bitrate=N/A speed=17.5x    frame=11698 fps=420 q=-0.0 size=N/A time=00:08:07.90 bitrate=N/A speed=17.5x    frame=11939 fps=421 q=-0.0 size=N/A time=00:08:17.95 bitrate=N/A speed=17.5x    frame=12199 fps=422 q=-0.0 size=N/A time=00:08:28.79 bitrate=N/A speed=17.6x    frame=12400 fps=422 q=-0.0 size=N/A time=00:08:37.18 bitrate=N/A speed=17.6x    frame=12631 fps=422 q=-0.0 size=N/A time=00:08:46.81 bitrate=N/A speed=17.6x    frame=12862 fps=423 q=-0.0 size=N/A time=00:08:56.45 bitrate=N/A speed=17.6x    frame=13111 fps=423 q=-0.0 size=N/A time=00:09:06.83 bitrate=N/A speed=17.7x    frame=13378 fps=425 q=-0.0 size=N/A time=00:09:17.97 bitrate=N/A speed=17.7x    frame=13595 fps=425 q=-0.0 size=N/A time=00:09:27.02 bitrate=N/A speed=17.7x    frame=13843 fps=426 q=-0.0 size=N/A time=00:09:37.36 bitrate=N/A speed=17.8x    frame=14115 fps=427 q=-0.0 size=N/A time=00:09:48.71 bitrate=N/A speed=17.8x    frame=14361 fps=428 q=-0.0 size=N/A time=00:09:58.97 bitrate=N/A speed=17.9x    frame=14616 fps=429 q=-0.0 size=N/A time=00:10:09.60 bitrate=N/A speed=17.9x    frame=14854 fps=430 q=-0.0 size=N/A time=00:10:19.53 bitrate=N/A speed=17.9x    frame=15092 fps=430 q=-0.0 size=N/A time=00:10:29.46 bitrate=N/A speed=17.9x    frame=15317 fps=430 q=-0.0 size=N/A time=00:10:38.84 bitrate=N/A speed=17.9x    frame=15557 fps=431 q=-0.0 size=N/A time=00:10:48.85 bitrate=N/A speed=  18x    frame=15779 fps=431 q=-0.0 size=N/A time=00:10:58.11 bitrate=N/A speed=  18x    frame=15973 fps=430 q=-0.0 size=N/A time=00:11:06.20 bitrate=N/A speed=17.9x    frame=16245 fps=431 q=-0.0 size=N/A time=00:11:17.55 bitrate=N/A speed=  18x    frame=16503 fps=432 q=-0.0 size=N/A time=00:11:28.31 bitrate=N/A speed=  18x    frame=16778 fps=434 q=-0.0 size=N/A time=00:11:39.78 bitrate=N/A speed=18.1x    frame=17000 fps=433 q=-0.0 size=N/A time=00:11:49.04 bitrate=N/A speed=18.1x    frame=17177 fps=432 q=-0.0 size=N/A time=00:11:56.42 bitrate=N/A speed=  18x    frame=17387 fps=432 q=-0.0 size=N/A time=00:12:05.18 bitrate=N/A speed=  18x    frame=17590 fps=432 q=-0.0 size=N/A time=00:12:13.64 bitrate=N/A speed=  18x    frame=17799 fps=431 q=-0.0 size=N/A time=00:12:22.36 bitrate=N/A speed=  18x    frame=17979 fps=430 q=-0.0 size=N/A time=00:12:29.87 bitrate=N/A speed=17.9x    frame=18200 fps=430 q=-0.0 size=N/A time=00:12:39.09 bitrate=N/A speed=17.9x    frame=18424 fps=430 q=-0.0 size=N/A time=00:12:48.43 bitrate=N/A speed=17.9x    frame=18585 fps=429 q=-0.0 size=N/A time=00:12:55.14 bitrate=N/A speed=17.9x    frame=18815 fps=429 q=-0.0 size=N/A time=00:13:04.74 bitrate=N/A speed=17.9x    frame=19072 fps=430 q=-0.0 size=N/A time=00:13:15.46 bitrate=N/A speed=17.9x    frame=19319 fps=430 q=-0.0 size=N/A time=00:13:25.76 bitrate=N/A speed=17.9x    frame=19552 fps=431 q=-0.0 size=N/A time=00:13:35.48 bitrate=N/A speed=  18x    frame=19786 fps=431 q=-0.0 size=N/A time=00:13:45.24 bitrate=N/A speed=  18x    frame=19977 fps=430 q=-0.0 size=N/A time=00:13:53.20 bitrate=N/A speed=17.9x    frame=20195 fps=430 q=-0.0 size=N/A time=00:14:02.29 bitrate=N/A speed=17.9x    frame=20440 fps=430 q=-0.0 size=N/A time=00:14:12.51 bitrate=N/A speed=  18x    frame=20657 fps=430 q=-0.0 size=N/A time=00:14:21.56 bitrate=N/A speed=17.9x    frame=20882 fps=431 q=-0.0 size=N/A time=00:14:30.95 bitrate=N/A speed=  18x    frame=21107 fps=431 q=-0.0 size=N/A time=00:14:40.33 bitrate=N/A speed=  18x    frame=21363 fps=431 q=-0.0 size=N/A time=00:14:51.01 bitrate=N/A speed=  18x    frame=21591 fps=431 q=-0.0 size=N/A time=00:15:00.52 bitrate=N/A speed=  18x    frame=21813 fps=431 q=-0.0 size=N/A time=00:15:09.78 bitrate=N/A speed=  18x    frame=22037 fps=431 q=-0.0 size=N/A time=00:15:19.12 bitrate=N/A speed=  18x    frame=22285 fps=432 q=-0.0 size=N/A time=00:15:29.47 bitrate=N/A speed=  18x    frame=22532 fps=432 q=-0.0 size=N/A time=00:15:39.77 bitrate=N/A speed=  18x    frame=22760 fps=432 q=-0.0 size=N/A time=00:15:49.28 bitrate=N/A speed=  18x    frame=22986 fps=432 q=-0.0 size=N/A time=00:15:58.70 bitrate=N/A speed=  18x    frame=23246 fps=433 q=-0.0 size=N/A time=00:16:09.55 bitrate=N/A speed=18.1x    frame=23466 fps=433 q=-0.0 size=N/A time=00:16:18.72 bitrate=N/A speed=18.1x    frame=23740 fps=434 q=-0.0 size=N/A time=00:16:30.15 bitrate=N/A speed=18.1x    frame=24011 fps=435 q=-0.0 size=N/A time=00:16:41.45 bitrate=N/A speed=18.1x    frame=24278 fps=436 q=-0.0 size=N/A time=00:16:52.59 bitrate=N/A speed=18.2x    frame=24547 fps=436 q=-0.0 size=N/A time=00:17:03.81 bitrate=N/A speed=18.2x    frame=24804 fps=437 q=-0.0 size=N/A time=00:17:14.53 bitrate=N/A speed=18.2x    frame=25054 fps=437 q=-0.0 size=N/A time=00:17:24.96 bitrate=N/A speed=18.2x    frame=25300 fps=438 q=-0.0 size=N/A time=00:17:35.22 bitrate=N/A speed=18.3x    frame=25539 fps=438 q=-0.0 size=N/A time=00:17:45.18 bitrate=N/A speed=18.3x    frame=25791 fps=438 q=-0.0 size=N/A time=00:17:55.69 bitrate=N/A speed=18.3x    frame=26025 fps=438 q=-0.0 size=N/A time=00:18:05.45 bitrate=N/A speed=18.3x    frame=26278 fps=439 q=-0.0 size=N/A time=00:18:16.01 bitrate=N/A speed=18.3x    frame=26506 fps=439 q=-0.0 size=N/A time=00:18:25.52 bitrate=N/A speed=18.3x    frame=26708 fps=438 q=-0.0 size=N/A time=00:18:33.94 bitrate=N/A speed=18.3x    frame=26952 fps=439 q=-0.0 size=N/A time=00:18:44.12 bitrate=N/A speed=18.3x    frame=27195 fps=439 q=-0.0 size=N/A time=00:18:54.25 bitrate=N/A speed=18.3x    frame=27448 fps=439 q=-0.0 size=N/A time=00:19:04.81 bitrate=N/A speed=18.3x    frame=27716 fps=440 q=-0.0 size=N/A time=00:19:15.98 bitrate=N/A speed=18.4x    frame=27983 fps=441 q=-0.0 size=N/A time=00:19:27.12 bitrate=N/A speed=18.4x    frame=28228 fps=441 q=-0.0 size=N/A time=00:19:37.34 bitrate=N/A speed=18.4x    frame=28478 fps=441 q=-0.0 size=N/A time=00:19:47.76 bitrate=N/A speed=18.4x    frame=28713 fps=441 q=-0.0 size=N/A time=00:19:57.57 bitrate=N/A speed=18.4x    frame=28923 fps=441 q=-0.0 size=N/A time=00:20:06.33 bitrate=N/A speed=18.4x    frame=29159 fps=441 q=-0.0 size=N/A time=00:20:16.17 bitrate=N/A speed=18.4x    frame=29409 fps=442 q=-0.0 size=N/A time=00:20:26.60 bitrate=N/A speed=18.4x    frame=29610 fps=441 q=-0.0 size=N/A time=00:20:34.98 bitrate=N/A speed=18.4x    frame=29853 fps=442 q=-0.0 size=N/A time=00:20:45.11 bitrate=N/A speed=18.4x    frame=30108 fps=442 q=-0.0 size=N/A time=00:20:55.75 bitrate=N/A speed=18.4x    frame=30336 fps=442 q=-0.0 size=N/A time=00:21:05.26 bitrate=N/A speed=18.4x    frame=30561 fps=442 q=-0.0 size=N/A time=00:21:14.64 bitrate=N/A speed=18.4x    frame=30781 fps=442 q=-0.0 size=N/A time=00:21:23.82 bitrate=N/A speed=18.4x    frame=31001 fps=442 q=-0.0 size=N/A time=00:21:33.00 bitrate=N/A speed=18.4x    frame=31255 fps=442 q=-0.0 size=N/A time=00:21:43.59 bitrate=N/A speed=18.4x    frame=31494 fps=442 q=-0.0 size=N/A time=00:21:53.56 bitrate=N/A speed=18.4x    frame=31692 fps=442 q=-0.0 size=N/A time=00:22:01.82 bitrate=N/A speed=18.4x    frame=31931 fps=442 q=-0.0 size=N/A time=00:22:11.78 bitrate=N/A speed=18.4x    frame=32165 fps=442 q=-0.0 size=N/A time=00:22:21.54 bitrate=N/A speed=18.4x    frame=32388 fps=442 q=-0.0 size=N/A time=00:22:30.84 bitrate=N/A speed=18.4x    frame=32608 fps=442 q=-0.0 size=N/A time=00:22:40.02 bitrate=N/A speed=18.4x    frame=32818 fps=442 q=-0.0 size=N/A time=00:22:48.78 bitrate=N/A speed=18.4x    frame=32988 fps=441 q=-0.0 size=N/A time=00:22:55.87 bitrate=N/A speed=18.4x    frame=33193 fps=440 q=-0.0 size=N/A time=00:23:04.42 bitrate=N/A speed=18.4x    frame=33392 fps=440 q=-0.0 size=N/A time=00:23:12.72 bitrate=N/A speed=18.4x    frame=33636 fps=440 q=-0.0 size=N/A time=00:23:22.90 bitrate=N/A speed=18.4x    frame=33871 fps=440 q=-0.0 size=N/A time=00:23:32.70 bitrate=N/A speed=18.4x    frame=34070 fps=440 q=-0.0 size=N/A time=00:23:41.00 bitrate=N/A speed=18.4x    [Parsed_psnr_10 @ 0000027c1248a240] PSNR y:47.823535 u:49.933458 v:49.670561 average:48.387959 min:36.705792 max:inf
[out#0/null @ 0000027c12464340] video:14697KiB audio:267716KiB subtitle:0KiB other streams:0KiB global headers:0KiB muxing overhead: unknown
frame=34203 fps=440 q=-0.0 Lsize=N/A time=00:23:46.55 bitrate=N/A speed=18.3x    
